<svg xmlns="http://www.w3.org/2000/svg" viewBox="0 0 84.32 28.35"><defs><style>.a{fill:#e84e0f}.b{fill:#1d1d1b}</style></defs><title>etnetera-barevne</title><path class="a" d="M6.95 5.15A1.77 1.77 0 1 1 9.3 7.77L7.99 8.96l-1.15-1.3a1.78 1.78 0 0 1 .11-2.51m12.22 13a2.34 2.34 0 0 0-3.32-.14l-5.07 4.65a3.64 3.64 0 0 1-5.14-.22 3.64 3.64 0 0 1 .22-5.14l1.88-1.73 1.56 1.75a2.35 2.35 0 0 0 3.46-3.17l-1.57-1.71 1.3-1.2a6.47 6.47 0 1 0-9.14-.39l1.2 1.31-1.85 1.71a8.33 8.33 0 0 0 5.27 14.47h.73a8.3 8.3 0 0 0 5.25-2.18l5.07-4.65a2.34 2.34 0 0 0 .14-3.32"/><path class="b" d="M31.3 12.94a.56.56 0 0 1-.57.59H26V14c0 1.37.61 2.28 2 2.28a4.31 4.31 0 0 0 1.55-.24 3.2 3.2 0 0 1 .89-.31.57.57 0 0 1 .57.63 1.15 1.15 0 0 1-.89.85 6.3 6.3 0 0 1-2.21.37c-2.5 0-3.42-1.7-3.42-3.68v-1.64c0-2 1-3.68 3.42-3.68s3.39 1.63 3.39 3.68v.68zm-3.39-3.13c-1.35 0-1.93.89-1.93 2.22v.3h3.84v-.31c.02-1.36-.47-2.21-1.89-2.21zm9.25 7.64h-.52c-2.4 0-3-1.49-3-3.77v-3.7h-.5a.65.65 0 1 1 0-1.3h.5V6.89a.76.76 0 1 1 1.51 0v1.77h1.62a.65.65 0 1 1 0 1.3h-1.64v3.68c0 1.74.28 2.4 1.65 2.4h.36a.705.705 0 0 1 .02 1.41zm8.29.11a.76.76 0 0 1-.77-.76v-4.9c0-1.09-.29-1.88-1.63-1.88a2.39 2.39 0 0 0-2.12 1.09v5.68a.75.75 0 0 1-.75.76.76.76 0 0 1-.76-.76v-5.85a1 1 0 0 0-.54-1.09.55.55 0 0 1-.3-.5.65.65 0 0 1 .72-.69 1.64 1.64 0 0 1 .94.36 1.52 1.52 0 0 1 .38.57 3.52 3.52 0 0 1 2.73-1c2.19 0 2.83 1.36 2.83 3.18v5a.76.76 0 0 1-.73.79zm9.63-4.62a.56.56 0 0 1-.57.59h-4.75V14c0 1.37.61 2.28 2 2.28a4.31 4.31 0 0 0 1.54-.25 3.19 3.19 0 0 1 .89-.31.57.57 0 0 1 .57.63 1.15 1.15 0 0 1-.88.85 6.31 6.31 0 0 1-2.21.37c-2.5 0-3.42-1.7-3.42-3.68v-1.63c0-2 1-3.68 3.42-3.68s3.4 1.63 3.4 3.68v.68zm-3.39-3.13c-1.35 0-1.93.89-1.93 2.22v.3h3.84v-.31c0-1.36-.49-2.21-1.91-2.21zm9.23 7.64h-.52c-2.4 0-3-1.49-3-3.77v-3.7h-.5a.65.65 0 1 1 0-1.3h.5V6.89a.76.76 0 1 1 1.51 0v1.77h1.62a.65.65 0 1 1 0 1.3h-1.64v3.68c0 1.74.28 2.4 1.65 2.4h.37a.705.705 0 0 1 .01 1.41zm8.31-4.51a.56.56 0 0 1-.57.59h-4.75V14c0 1.37.61 2.28 2 2.28a4.33 4.33 0 0 0 1.55-.24 3.18 3.18 0 0 1 .84-.33.57.57 0 0 1 .57.63 1.15 1.15 0 0 1-.89.85 6.29 6.29 0 0 1-2.21.37c-2.5 0-3.42-1.7-3.42-3.68v-1.62c0-2 1-3.68 3.42-3.68s3.4 1.63 3.4 3.68v.68zm-3.39-3.13c-1.36 0-1.93.89-1.93 2.22v.3h3.84v-.31c0-1.36-.45-2.21-1.91-2.21zm10.05.36a10.09 10.09 0 0 0-1.06-.12 1.8 1.8 0 0 0-1.94 1.61v5.17a.75.75 0 0 1-.75.76.76.76 0 0 1-.77-.76v-5.89a1 1 0 0 0-.54-1.09.55.55 0 0 1-.3-.5.65.65 0 0 1 .77-.69 1.6 1.6 0 0 1 1.4 1.1 2.78 2.78 0 0 1 2.4-1.16c.71 0 1.53.23 1.53.82a.71.71 0 0 1-.74.75zm7.67 7.39a1.28 1.28 0 0 1-.78-.26 1.49 1.49 0 0 1-.48-.64 3.27 3.27 0 0 1-2.43.89c-2.14 0-3-1.13-3-2.57v-.12c0-1.44 1-2.52 3.21-2.52h2v-.43c0-1.37-.33-2.07-1.79-2.07a3.31 3.31 0 0 0-1.34.23 2.49 2.49 0 0 1-.82.3.61.61 0 0 1-.62-.61 1.07 1.07 0 0 1 .79-.84 5.53 5.53 0 0 1 2-.35c2.47 0 3.2 1.2 3.2 3.47v3.25a1 1 0 0 0 .48 1.08.59.59 0 0 1 .3.52.65.65 0 0 1-.72.67zm-1.53-4H80.2c-1.46 0-1.84.64-1.84 1.35v.12c0 .75.42 1.37 1.79 1.37a1.66 1.66 0 0 0 1.88-1.83v-1z"/></svg>