<svg xmlns="http://www.w3.org/2000/svg" viewBox="0 0 84.32 28.35"><defs><style>.a{fill:#e84e0f;}.b{fill:#1d1d1b;}</style></defs><title>etnetera-barevne</title><path class="a" d="M18.65,16.49A1.77,1.77,0,1,1,21,19.11l-1.31,1.19L18.54,19a1.78,1.78,0,0,1,.11-2.51m12.22,13a2.34,2.34,0,0,0-3.32-.14L22.48,34a3.64,3.64,0,0,1-5.14-.22,3.64,3.64,0,0,1,.22-5.14l1.88-1.73L21,28.66a2.35,2.35,0,0,0,3.46-3.17l-1.57-1.71,1.3-1.2a6.47,6.47,0,1,0-9.14-.39l1.2,1.31L14.4,25.21a8.33,8.33,0,0,0,5.27,14.47H20.4a8.3,8.3,0,0,0,5.25-2.18l5.07-4.65a2.34,2.34,0,0,0,.14-3.32" transform="translate(-11.7 -11.34)"/><path class="b" d="M43,24.28a0.56,0.56,0,0,1-.57.59H37.7v0.47c0,1.37.61,2.28,2,2.28a4.31,4.31,0,0,0,1.55-.24,3.2,3.2,0,0,1,.89-0.31,0.57,0.57,0,0,1,.57.63,1.15,1.15,0,0,1-.89.85,6.3,6.3,0,0,1-2.21.37c-2.5,0-3.42-1.7-3.42-3.68V23.6c0-2,1-3.68,3.42-3.68S43,21.55,43,23.6v0.68Zm-3.39-3.13c-1.35,0-1.93.89-1.93,2.22v0.3h3.84V23.36C41.54,22,41.05,21.15,39.63,21.15Z" transform="translate(-11.7 -11.34)"/><path class="b" d="M48.86,28.79H48.34c-2.4,0-3-1.49-3-3.77v-3.7h-0.5a0.65,0.65,0,1,1,0-1.3h0.5V18.23a0.76,0.76,0,1,1,1.51,0V20h1.62a0.65,0.65,0,1,1,0,1.3H46.83l0,3.68c0,1.74.28,2.4,1.65,2.4h0.36A0.69,0.69,0,0,1,48.86,28.79Z" transform="translate(-11.7 -11.34)"/><path class="b" d="M57.15,28.9a0.76,0.76,0,0,1-.77-0.76v-4.9c0-1.09-.29-1.88-1.63-1.88a2.39,2.39,0,0,0-2.12,1.09v5.68a0.75,0.75,0,0,1-.75.76,0.76,0.76,0,0,1-.76-0.76V22.28a1,1,0,0,0-.54-1.09,0.55,0.55,0,0,1-.3-0.5A0.65,0.65,0,0,1,51,20a1.64,1.64,0,0,1,.94.36,1.52,1.52,0,0,1,.38.57,3.52,3.52,0,0,1,2.73-1c2.19,0,2.83,1.36,2.83,3.18l0,5A0.76,0.76,0,0,1,57.15,28.9Z" transform="translate(-11.7 -11.34)"/><path class="b" d="M66.78,24.28a0.56,0.56,0,0,1-.57.59H61.46v0.47c0,1.37.61,2.28,2,2.28A4.31,4.31,0,0,0,65,27.37a3.19,3.19,0,0,1,.89-0.31,0.57,0.57,0,0,1,.57.63,1.15,1.15,0,0,1-.88.85,6.31,6.31,0,0,1-2.21.37c-2.5,0-3.42-1.7-3.42-3.68V23.6c0-2,1-3.68,3.42-3.68s3.4,1.63,3.4,3.68v0.68Zm-3.39-3.13c-1.35,0-1.93.89-1.93,2.22v0.3H65.3V23.36C65.3,22,64.81,21.15,63.39,21.15Z" transform="translate(-11.7 -11.34)"/><path class="b" d="M72.62,28.79H72.1c-2.4,0-3-1.49-3-3.77v-3.7h-0.5a0.65,0.65,0,1,1,0-1.3h0.5V18.23a0.76,0.76,0,1,1,1.51,0V20h1.62a0.65,0.65,0,1,1,0,1.3H70.59l0,3.68c0,1.74.28,2.4,1.65,2.4h0.37A0.69,0.69,0,0,1,72.62,28.79Z" transform="translate(-11.7 -11.34)"/><path class="b" d="M80.93,24.28a0.56,0.56,0,0,1-.57.59H75.61v0.47c0,1.37.61,2.28,2,2.28a4.33,4.33,0,0,0,1.55-.24A3.18,3.18,0,0,1,80,27.05a0.57,0.57,0,0,1,.57.63,1.15,1.15,0,0,1-.89.85,6.29,6.29,0,0,1-2.21.37c-2.5,0-3.42-1.7-3.42-3.68V23.6c0-2,1-3.68,3.42-3.68s3.4,1.63,3.4,3.68v0.68Zm-3.39-3.13c-1.36,0-1.93.89-1.93,2.22v0.3h3.84V23.36C79.45,22,79,21.15,77.54,21.15Z" transform="translate(-11.7 -11.34)"/><path class="b" d="M87.59,21.51a10.09,10.09,0,0,0-1.06-.12A1.8,1.8,0,0,0,84.59,23v5.17a0.75,0.75,0,0,1-.75.76,0.76,0.76,0,0,1-.77-0.76V22.28a1,1,0,0,0-.54-1.09,0.55,0.55,0,0,1-.3-0.5A0.65,0.65,0,0,1,83,20,1.6,1.6,0,0,1,84.4,21.1a2.78,2.78,0,0,1,2.4-1.16c0.71,0,1.53.23,1.53,0.82A0.71,0.71,0,0,1,87.59,21.51Z" transform="translate(-11.7 -11.34)"/><path class="b" d="M95.26,28.9a1.28,1.28,0,0,1-.78-0.26A1.49,1.49,0,0,1,94,28a3.27,3.27,0,0,1-2.43.89c-2.14,0-3-1.13-3-2.57V26.2c0-1.44,1-2.52,3.21-2.52h2V23.25c0-1.37-.33-2.07-1.79-2.07a3.31,3.31,0,0,0-1.34.23,2.49,2.49,0,0,1-.82.3,0.61,0.61,0,0,1-.62-0.61A1.07,1.07,0,0,1,90,20.26a5.53,5.53,0,0,1,2-.35c2.47,0,3.2,1.2,3.2,3.47v3.25a1,1,0,0,0,.48,1.08,0.59,0.59,0,0,1,.3.52A0.65,0.65,0,0,1,95.26,28.9Zm-1.53-4H91.9c-1.46,0-1.84.64-1.84,1.35v0.12c0,0.75.42,1.37,1.79,1.37a1.66,1.66,0,0,0,1.88-1.83v-1Z" transform="translate(-11.7 -11.34)"/></svg>